{
	"asset":{
		"generator":"Khronos glTF Blender I/O v3.6.27",
		"version":"2.0"
	},
	"extensionsUsed":[
		"KHR_materials_specular"
	],
	"scene":0,
	"scenes":[
		{
			"name":"Scene",
			"nodes":[
				0
			]
		}
	],
	"nodes":[
		{
			"mesh":0,
			"name":"Base_Skateboard_0",
			"rotation":[
				-0.70710688829422,
				0,
				0,
				0.7071066498756409
			],
			"translation":[
				-20,
				-2.6847469806671143,
				5.000000476837158
			]
		}
	],
	"materials":[
		{
			"doubleSided":true,
			"extensions":{
				"KHR_materials_specular":{
					"specularColorTexture":{
						"index":0
					}
				}
			},
			"name":"Skateboard",
			"normalTexture":{
				"index":1
			},
			"occlusionTexture":{
				"index":2
			},
			"pbrMetallicRoughness":{
				"baseColorTexture":{
					"index":3
				},
				"metallicRoughnessTexture":{
					"index":2
				}
			}
		},
		{
			"doubleSided":true,
			"name":"ThreeJS",
			"pbrMetallicRoughness":{
				"baseColorTexture":{
					"index":4
				},
				"metallicFactor":0,
				"roughnessFactor":0.5
			}
		}
	],
	"meshes":[
		{
			"name":"Base_Skateboard_0",
			"primitives":[
				{
					"attributes":{
						"POSITION":0,
						"NORMAL":1,
						"TEXCOORD_0":2
					},
					"indices":3,
					"material":0
				},
				{
					"attributes":{
						"POSITION":4,
						"NORMAL":5,
						"TEXCOORD_0":6
					},
					"indices":7,
					"material":1
				}
			]
		}
	],
	"textures":[
		{
			"sampler":0,
			"source":0
		},
		{
			"sampler":0,
			"source":1
		},
		{
			"sampler":0,
			"source":2
		},
		{
			"sampler":0,
			"source":3
		},
		{
			"sampler":0,
			"source":4
		}
	],
	"images":[
		{
			"mimeType":"image/png",
			"name":"Image",
			"uri":"Image.png"
		},
		{
			"mimeType":"image/png",
			"name":"Skateboard_normal",
			"uri":"Skateboard_normal.png"
		},
		{
			"mimeType":"image/png",
			"name":"Skateboard_metallicRoughness",
			"uri":"Skateboard_metallicRoughness.png"
		},
		{
			"mimeType":"image/png",
			"name":"Skateboard_baseColor",
			"uri":"Skateboard_baseColor.png"
		},
		{
			"mimeType":"image/png",
			"name":"Lion_waiting_in_Namibia",
			"uri":"Lion_waiting_in_Namibia.png"
		}
	],
	"accessors":[
		{
			"bufferView":0,
			"componentType":5126,
			"count":543,
			"max":[
				60.284690856933594,
				15.049614906311035,
				7.068727016448975
			],
			"min":[
				-20.284692764282227,
				-5.049614906311035,
				-5.955427646636963
			],
			"type":"VEC3"
		},
		{
			"bufferView":1,
			"componentType":5126,
			"count":543,
			"type":"VEC3"
		},
		{
			"bufferView":2,
			"componentType":5126,
			"count":543,
			"type":"VEC2"
		},
		{
			"bufferView":3,
			"componentType":5123,
			"count":1599,
			"type":"SCALAR"
		},
		{
			"bufferView":4,
			"componentType":5126,
			"count":586,
			"max":[
				60.284690856933594,
				15.049614906311035,
				6.551726341247559
			],
			"min":[
				-20.13236427307129,
				-5.049614906311035,
				-5.7349114418029785
			],
			"type":"VEC3"
		},
		{
			"bufferView":5,
			"componentType":5126,
			"count":586,
			"type":"VEC3"
		},
		{
			"bufferView":6,
			"componentType":5126,
			"count":586,
			"type":"VEC2"
		},
		{
			"bufferView":7,
			"componentType":5123,
			"count":1311,
			"type":"SCALAR"
		}
	],
	"bufferViews":[
		{
			"buffer":0,
			"byteLength":6516,
			"byteOffset":0,
			"target":34962
		},
		{
			"buffer":0,
			"byteLength":6516,
			"byteOffset":6516,
			"target":34962
		},
		{
			"buffer":0,
			"byteLength":4344,
			"byteOffset":13032,
			"target":34962
		},
		{
			"buffer":0,
			"byteLength":3198,
			"byteOffset":17376,
			"target":34963
		},
		{
			"buffer":0,
			"byteLength":7032,
			"byteOffset":20576,
			"target":34962
		},
		{
			"buffer":0,
			"byteLength":7032,
			"byteOffset":27608,
			"target":34962
		},
		{
			"buffer":0,
			"byteLength":4688,
			"byteOffset":34640,
			"target":34962
		},
		{
			"buffer":0,
			"byteLength":2622,
			"byteOffset":39328,
			"target":34963
		}
	],
	"samplers":[
		{
			"magFilter":9729,
			"minFilter":9987
		}
	],
	"buffers":[
		{
			"byteLength":41952,
			"uri":"scene.bin"
		}
	]
}
