{
	"asset":{
		"generator":"Khronos glTF Blender I/O v3.6.27",
		"version":"2.0"
	},
	"extensionsUsed":[
		"KHR_materials_specular"
	],
	"scene":0,
	"scenes":[
		{
			"name":"Scene",
			"nodes":[
				0
			]
		}
	],
	"nodes":[
		{
			"mesh":0,
			"name":"Base_Skateboard_0",
			"rotation":[
				0.7071068286895752,
				-0.7071068286895752,
				0,
				1.1072329186845309e-07
			]
		}
	],
	"materials":[
		{
			"doubleSided":true,
			"extensions":{
				"KHR_materials_specular":{
					"specularColorTexture":{
						"index":0
					}
				}
			},
			"name":"Skateboard",
			"normalTexture":{
				"index":1
			},
			"occlusionTexture":{
				"index":2
			},
			"pbrMetallicRoughness":{
				"baseColorTexture":{
					"index":3
				},
				"metallicRoughnessTexture":{
					"index":2
				}
			}
		},
		{
			"doubleSided":true,
			"name":"ThreeJS",
			"pbrMetallicRoughness":{
				"baseColorTexture":{
					"index":4
				},
				"metallicFactor":0,
				"roughnessFactor":0.5
			}
		}
	],
	"meshes":[
		{
			"name":"Base_Skateboard_0",
			"primitives":[
				{
					"attributes":{
						"POSITION":0,
						"NORMAL":1,
						"TEXCOORD_0":2
					},
					"indices":3,
					"material":0
				},
				{
					"attributes":{
						"POSITION":4,
						"NORMAL":5,
						"TEXCOORD_0":6
					},
					"indices":7,
					"material":1
				}
			]
		}
	],
	"textures":[
		{
			"sampler":0,
			"source":0
		},
		{
			"sampler":0,
			"source":1
		},
		{
			"sampler":0,
			"source":2
		},
		{
			"sampler":0,
			"source":3
		},
		{
			"sampler":0,
			"source":4
		}
	],
	"images":[
		{
			"mimeType":"image/png",
			"name":"Image",
			"uri":"Image.png"
		},
		{
			"mimeType":"image/png",
			"name":"Skateboard_normal",
			"uri":"Skateboard_normal.png"
		},
		{
			"mimeType":"image/png",
			"name":"Skateboard_metallicRoughness",
			"uri":"Skateboard_metallicRoughness.png"
		},
		{
			"mimeType":"image/png",
			"name":"Skateboard_baseColor",
			"uri":"Skateboard_baseColor.png"
		},
		{
			"mimeType":"image/jpeg",
			"name":"TH_24567081_24594081_24596081_24601081_24563081_24565081_24588081_001",
			"uri":"TH_24567081_24594081_24596081_24601081_24563081_24565081_24588081_001.jpg"
		}
	],
	"accessors":[
		{
			"bufferView":0,
			"componentType":5126,
			"count":572,
			"max":[
				38.05283737182617,
				9.91969108581543,
				4.901252269744873
			],
			"min":[
				-42.516544342041016,
				-10.17953872680664,
				-8.122902870178223
			],
			"type":"VEC3"
		},
		{
			"bufferView":1,
			"componentType":5126,
			"count":572,
			"type":"VEC3"
		},
		{
			"bufferView":2,
			"componentType":5126,
			"count":572,
			"type":"VEC2"
		},
		{
			"bufferView":3,
			"componentType":5123,
			"count":1599,
			"type":"SCALAR"
		},
		{
			"bufferView":4,
			"componentType":5126,
			"count":609,
			"max":[
				38.05283737182617,
				9.91969108581543,
				4.384251117706299
			],
			"min":[
				-42.36421585083008,
				-10.17953872680664,
				-7.902386665344238
			],
			"type":"VEC3"
		},
		{
			"bufferView":5,
			"componentType":5126,
			"count":609,
			"type":"VEC3"
		},
		{
			"bufferView":6,
			"componentType":5126,
			"count":609,
			"type":"VEC2"
		},
		{
			"bufferView":7,
			"componentType":5123,
			"count":1311,
			"type":"SCALAR"
		}
	],
	"bufferViews":[
		{
			"buffer":0,
			"byteLength":6864,
			"byteOffset":0,
			"target":34962
		},
		{
			"buffer":0,
			"byteLength":6864,
			"byteOffset":6864,
			"target":34962
		},
		{
			"buffer":0,
			"byteLength":4576,
			"byteOffset":13728,
			"target":34962
		},
		{
			"buffer":0,
			"byteLength":3198,
			"byteOffset":18304,
			"target":34963
		},
		{
			"buffer":0,
			"byteLength":7308,
			"byteOffset":21504,
			"target":34962
		},
		{
			"buffer":0,
			"byteLength":7308,
			"byteOffset":28812,
			"target":34962
		},
		{
			"buffer":0,
			"byteLength":4872,
			"byteOffset":36120,
			"target":34962
		},
		{
			"buffer":0,
			"byteLength":2622,
			"byteOffset":40992,
			"target":34963
		}
	],
	"samplers":[
		{
			"magFilter":9729,
			"minFilter":9987
		}
	],
	"buffers":[
		{
			"byteLength":43616,
			"uri":"scene.bin"
		}
	]
}
